<?xml version="1.0" encoding="utf-8"?>
<svg version="1.1" viewBox="0 0 10.469762440376815 11.893724669637258" xmlns="http://www.w3.org/2000/svg">
  <g transform="matrix(1,0,0,1,0.9295430353739551,7.383423634263304)">
    <g>
      <path d=" M 3.6401139396972653 0.06310499999999997 L 3.3281949396972648 1.33422 L 2.893671939697265 1.33422 L 2.718780939697265 0.555324 L 2.540283939697265 1.33422 L 2.105760939697265 1.33422 L 1.7974479396972651 0.06310499999999997 L 2.179683939697265 0.06310499999999997 L 2.327529939697265 0.932151 L 2.527662939697265 0.06310499999999997 L 2.915307939697265 0.06310499999999997 L 3.110031939697265 0.924939 L 3.257877939697265 0.06310499999999997 L 3.6401139396972653 0.06310499999999997 Z M 4.007004191162109 1.283736 Q 3.8871046911621088 1.220631 3.818590691162109 1.1034359999999999 Q 3.750076691162109 0.9862409999999999 3.750076691162109 0.827577 Q 3.750076691162109 0.670716 3.8194921911621087 0.553521 Q 3.888907691162109 0.436326 4.008807191162109 0.373221 Q 4.128706691162109 0.31011600000000006 4.280158691162109 0.31011600000000006 Q 4.431610691162109 0.31011600000000006 4.551510191162109 0.373221 Q 4.671409691162109 0.436326 4.740825191162109 0.553521 Q 4.810240691162109 0.670716 4.810240691162109 0.827577 Q 4.810240691162109 0.9844379999999999 4.740825191162109 1.1025345 Q 4.671409691162109 1.220631 4.550608691162109 1.283736 Q 4.429807691162109 1.346841 4.278355691162108 1.346841 Q 4.126903691162109 1.346841 4.007004191162109 1.283736 Z M 4.401861191162109 0.9853395 Q 4.451443691162109 0.930348 4.451443691162109 0.827577 Q 4.451443691162109 0.724806 4.401861191162109 0.670716 Q 4.352278691162109 0.616626 4.280158691162109 0.616626 Q 4.208038691162109 0.616626 4.159357691162109 0.670716 Q 4.110676691162109 0.724806 4.110676691162109 0.827577 Q 4.110676691162109 0.932151 4.157554691162109 0.9862409999999999 Q 4.204432691162109 1.040331 4.278355691162108 1.040331 Q 4.352278691162109 1.040331 4.401861191162109 0.9853395 Z M 5.470114040771484 0.36420600000000003 Q 5.554855040771484 0.31372200000000006 5.652217040771484 0.31372200000000006 L 5.652217040771484 0.690549 L 5.553052040771484 0.690549 Q 5.437660040771484 0.690549 5.381767040771484 0.735624 Q 5.325874040771484 0.780699 5.325874040771484 0.892485 L 5.325874040771484 1.33422 L 4.972486040771484 1.33422 L 4.972486040771484 0.32273700000000005 L 5.325874040771484 0.32273700000000005 L 5.325874040771484 0.501234 Q 5.3853730407714835 0.41469 5.470114040771484 0.36420600000000003 Z M 6.42923873071289 1.33422 L 6.14977373071289 0.91953 L 6.14977373071289 1.33422 L 5.79638573071289 1.33422 L 5.79638573071289 0 L 6.14977373071289 0 L 6.14977373071289 0.719397 L 6.42923873071289 0.32273700000000005 L 6.85294373071289 0.32273700000000005 L 6.45448073071289 0.831183 L 6.86015573071289 1.33422 L 6.42923873071289 1.33422 Z M 1.0583609999999999 1.8120149999999997 L 1.0583609999999999 2.0932829999999996 L 0.719397 2.0932829999999996 L 0.719397 3.0831299999999997 L 0.366009 3.0831299999999997 L 0.366009 2.0932829999999996 L 0.030650999999999998 2.0932829999999996 L 0.030650999999999998 1.8120149999999997 L 1.0583609999999999 1.8120149999999997 Z M 1.4071384965820313 3.0326459999999997 Q 1.2872389965820312 2.9695409999999995 1.2187249965820313 2.852346 Q 1.1502109965820313 2.7351509999999997 1.1502109965820313 2.5764869999999997 Q 1.1502109965820313 2.4196259999999996 1.2196264965820314 2.302431 Q 1.2890419965820312 2.1852359999999997 1.4089414965820313 2.1221309999999995 Q 1.5288409965820313 2.059026 1.6802929965820312 2.059026 Q 1.8317449965820312 2.059026 1.9516444965820314 2.1221309999999995 Q 2.0715439965820313 2.1852359999999997 2.140959496582031 2.302431 Q 2.210374996582031 2.4196259999999996 2.210374996582031 2.5764869999999997 Q 2.210374996582031 2.733348 2.140959496582031 2.8514444999999995 Q 2.0715439965820313 2.9695409999999995 1.9507429965820313 3.0326459999999997 Q 1.8299419965820314 3.095751 1.6784899965820312 3.095751 Q 1.5270379965820313 3.095751 1.4071384965820313 3.0326459999999997 Z M 1.8019954965820313 2.7342494999999998 Q 1.8515779965820314 2.679258 1.8515779965820314 2.5764869999999997 Q 1.8515779965820314 2.4737159999999996 1.8019954965820313 2.4196259999999996 Q 1.7524129965820312 2.3655359999999996 1.6802929965820312 2.3655359999999996 Q 1.6081729965820313 2.3655359999999996 1.5594919965820313 2.4196259999999996 Q 1.5108109965820313 2.4737159999999996 1.5108109965820313 2.5764869999999997 Q 1.5108109965820313 2.6810609999999997 1.5576889965820313 2.7351509999999997 Q 1.6045669965820313 2.7892409999999996 1.6784899965820312 2.7892409999999996 Q 1.7524129965820312 2.7892409999999996 1.8019954965820313 2.7342494999999998 Z M 2.925239846191406 2.1004949999999996 Q 3.001867346191406 2.1419639999999998 3.0433363461914062 2.212281 L 3.0433363461914062 2.0716469999999996 L 3.396724346191406 2.0716469999999996 L 3.396724346191406 3.0723119999999997 Q 3.396724346191406 3.214749 3.342634346191406 3.3292395 Q 3.288544346191406 3.4437299999999995 3.174053846191406 3.512244 Q 3.059563346191406 3.5807579999999994 2.8846723461914063 3.5807579999999994 Q 2.650282346191406 3.5807579999999994 2.509648346191406 3.4707749999999997 Q 2.369014346191406 3.3607919999999996 2.3491813461914064 3.171477 L 2.6971603461914064 3.171477 Q 2.707978346191406 3.2201579999999996 2.751250346191406 3.247203 Q 2.794522346191406 3.2742479999999996 2.8630363461914063 3.2742479999999996 Q 3.0433363461914062 3.2742479999999996 3.0433363461914062 3.0723119999999997 L 3.0433363461914062 2.942496 Q 3.001867346191406 3.0128129999999995 2.925239846191406 3.0542819999999997 Q 2.8486123461914064 3.095751 2.745841346191406 3.095751 Q 2.625040346191406 3.095751 2.526776846191406 3.0326459999999997 Q 2.4285133461914064 2.9695409999999995 2.3717188461914063 2.8514444999999995 Q 2.314924346191406 2.733348 2.314924346191406 2.5764869999999997 Q 2.314924346191406 2.4196259999999996 2.3717188461914063 2.302431 Q 2.4285133461914064 2.1852359999999997 2.526776846191406 2.1221309999999995 Q 2.625040346191406 2.059026 2.745841346191406 2.059026 Q 2.8486123461914064 2.059026 2.925239846191406 2.1004949999999996 Z M 2.990147846191406 2.4232319999999996 Q 2.936959346191406 2.367339 2.8594303461914063 2.367339 Q 2.780098346191406 2.367339 2.727811346191406 2.4223304999999997 Q 2.6755243461914064 2.4773219999999996 2.6755243461914064 2.5764869999999997 Q 2.6755243461914064 2.6738489999999997 2.727811346191406 2.7306435 Q 2.780098346191406 2.787438 2.8594303461914063 2.787438 Q 2.936959346191406 2.787438 2.990147846191406 2.7315449999999997 Q 3.0433363461914062 2.6756519999999995 3.0433363461914062 2.5764869999999997 Q 3.0433363461914062 2.479125 2.990147846191406 2.4232319999999996 Z M 4.577676140625 2.6486069999999997 L 3.9087631406249996 2.6486069999999997 Q 3.914172140625 2.7315449999999997 3.9547396406249997 2.7721124999999995 Q 3.995307140625 2.81268 4.058412140625 2.81268 Q 4.146759140625 2.81268 4.184622140625 2.733348 L 4.561449140624999 2.733348 Q 4.5380101406249995 2.837922 4.4703976406249994 2.9199585 Q 4.402785140624999 3.0019949999999995 4.300014140625 3.0488729999999995 Q 4.197243140625 3.095751 4.072836140625 3.095751 Q 3.923187140625 3.095751 3.806893640625 3.0326459999999997 Q 3.690600140625 2.9695409999999995 3.6247906406249997 2.852346 Q 3.558981140625 2.7351509999999997 3.558981140625 2.5764869999999997 Q 3.558981140625 2.417823 3.623889140625 2.3015295 Q 3.6887971406249997 2.1852359999999997 3.805090640625 2.1221309999999995 Q 3.921384140625 2.059026 4.072836140625 2.059026 Q 4.2224851406249995 2.059026 4.337877140625 2.1203279999999998 Q 4.453269140625 2.1816299999999997 4.518177140624999 2.2961205 Q 4.583085140625 2.410611 4.583085140625 2.5656689999999998 Q 4.583085140625 2.607138 4.577676140625 2.6486069999999997 Z M 4.2224851406249995 2.4773219999999996 Q 4.2224851406249995 2.4124139999999996 4.1792131406249995 2.3754524999999997 Q 4.1359411406249995 2.338491 4.0710331406249995 2.338491 Q 4.006125140625 2.338491 3.964656140625 2.3736495 Q 3.923187140625 2.4088079999999996 3.910566140625 2.4773219999999996 L 4.2224851406249995 2.4773219999999996 Z M 5.3420882753906245 2.7820289999999996 L 5.3420882753906245 3.0831299999999997 L 5.188833275390625 3.0831299999999997 Q 4.801188275390625 3.0831299999999997 4.801188275390625 2.6990909999999997 L 4.801188275390625 2.3655359999999996 L 4.676781275390625 2.3655359999999996 L 4.676781275390625 2.0716469999999996 L 4.801188275390625 2.0716469999999996 L 4.801188275390625 1.8264389999999997 L 5.156379275390624 1.8264389999999997 L 5.156379275390624 2.0716469999999996 L 5.340285275390625 2.0716469999999996 L 5.340285275390625 2.3655359999999996 L 5.156379275390624 2.3655359999999996 L 5.156379275390624 2.7045 Q 5.156379275390624 2.7459689999999997 5.175310775390624 2.7639989999999997 Q 5.194242275390625 2.7820289999999996 5.239317275390625 2.7820289999999996 L 5.3420882753906245 2.7820289999999996 Z M 6.462579704589844 2.1789254999999996 Q 6.5644492045898435 2.295219 6.5644492045898435 2.493549 L 6.5644492045898435 3.0831299999999997 L 6.211061204589844 3.0831299999999997 L 6.211061204589844 2.5404269999999998 Q 6.211061204589844 2.453883 6.165986204589844 2.4043004999999997 Q 6.120911204589843 2.3547179999999996 6.045185204589844 2.3547179999999996 Q 5.965853204589844 2.3547179999999996 5.920778204589844 2.4043004999999997 Q 5.875703204589843 2.453883 5.875703204589843 2.5404269999999998 L 5.875703204589843 3.0831299999999997 L 5.522315204589844 3.0831299999999997 L 5.522315204589844 1.7489099999999997 L 5.875703204589843 1.7489099999999997 L 5.875703204589843 2.2158869999999995 Q 5.922581204589844 2.147373 6.002814704589843 2.1050025 Q 6.0830482045898435 2.062632 6.187622204589844 2.062632 Q 6.360710204589844 2.062632 6.462579704589844 2.1789254999999996 Z M 7.738155544921875 2.6486069999999997 L 7.069242544921875 2.6486069999999997 Q 7.074651544921874 2.7315449999999997 7.115219044921875 2.7721124999999995 Q 7.155786544921875 2.81268 7.218891544921874 2.81268 Q 7.307238544921875 2.81268 7.345101544921874 2.733348 L 7.721928544921875 2.733348 Q 7.698489544921874 2.837922 7.630877044921874 2.9199585 Q 7.563264544921875 3.0019949999999995 7.460493544921874 3.0488729999999995 Q 7.357722544921875 3.095751 7.233315544921874 3.095751 Q 7.083666544921875 3.095751 6.9673730449218745 3.0326459999999997 Q 6.851079544921874 2.9695409999999995 6.785270044921875 2.852346 Q 6.7194605449218745 2.7351509999999997 6.7194605449218745 2.5764869999999997 Q 6.7194605449218745 2.417823 6.7843685449218745 2.3015295 Q 6.849276544921874 2.1852359999999997 6.965570044921875 2.1221309999999995 Q 7.081863544921875 2.059026 7.233315544921874 2.059026 Q 7.382964544921874 2.059026 7.498356544921874 2.1203279999999998 Q 7.613748544921874 2.1816299999999997 7.678656544921875 2.2961205 Q 7.743564544921874 2.410611 7.743564544921874 2.5656689999999998 Q 7.743564544921874 2.607138 7.738155544921875 2.6486069999999997 Z M 7.382964544921874 2.4773219999999996 Q 7.382964544921874 2.4124139999999996 7.339692544921874 2.3754524999999997 Q 7.296420544921874 2.338491 7.231512544921874 2.338491 Q 7.166604544921874 2.338491 7.125135544921875 2.3736495 Q 7.083666544921875 2.4088079999999996 7.0710455449218745 2.4773219999999996 L 7.382964544921874 2.4773219999999996 Z M 8.403402679687499 2.1131159999999998 Q 8.4881436796875 2.062632 8.585505679687499 2.062632 L 8.585505679687499 2.439459 L 8.4863406796875 2.439459 Q 8.3709486796875 2.439459 8.3150556796875 2.4845339999999996 Q 8.259162679687499 2.5296089999999998 8.259162679687499 2.6413949999999997 L 8.259162679687499 3.0831299999999997 L 7.905774679687499 3.0831299999999997 L 7.905774679687499 2.0716469999999996 L 8.259162679687499 2.0716469999999996 L 8.259162679687499 2.2501439999999997 Q 8.3186616796875 2.1635999999999997 8.403402679687499 2.1131159999999998 Z" fill-rule="nonzero" style="fill: rgb(32, 32, 32);"/>
    </g>
    <g/>
    <g clip-path="url(#SvgjsClipPath1009)">
      <g clip-path="url(#SvgjsClipPath1008)">
        <path d=" M 2.7332708581258025 -4.657223617512544 L 3.6315993488142047 -4.657223617512544 L 3.6315993488142047 -5.5555521082009465 L 4.529927839502607 -5.5555521082009465 L 4.529927839502607 -6.453880598889349 L 5.8774055115031025 -6.453880598889349 L 5.8774055115031025 -2.650031723403723 C 5.877173912044856 -2.64013863403628 5.874381603635648 -2.630474548054968 5.86930106222936 -2.6219824956198785 L 4.564755881734749 -0.3623776795206668 C 4.47837872163133 -0.21270145650225558 4.132538672511292 -0.2126412003738265 4.046101256279444 -0.3623776795206668 L 2.741556075784833 -2.621982495619878 C 2.7364247502429064 -2.6304626593552385 2.733570832315523 -2.640124468774853 2.7332708581258025 -2.650031723403723 L 2.7332708581258025 -4.657223617512544 Z M 4.0460108720868 -1.2606157860164267 L 4.564635369477891 -1.2606157860164267 L 5.229079697667917 -2.4115078390162905 L 3.3815665438967732 -2.4115078390162905 L 4.0460108720868 -1.2606157860164267 Z M 5.42819607406258 -2.860596764199955 L 5.42819607406258 -6.00470128951304 L 4.979046892750485 -6.00470128951304 L 4.979046892750485 -2.860596764199955 Z M 4.529927839502607 -2.860596764199955 L 4.529927839502607 -5.106372798824638 L 4.080778658190513 -5.106372798824638 L 4.080778658190513 -2.860596764199955 Z M 3.6315692207499906 -2.860596764199955 L 3.6315692207499906 -4.208044308136236 L 3.182450167502111 -4.208044308136236 L 3.182450167502111 -2.860596764199955 Z" transform="matrix(1,0,0,1,0,0)" fill-rule="evenodd" style="fill: rgb(17, 146, 220);"/>
      </g>
    </g>
  </g>
  <defs>
    <clipPath id="SvgjsClipPath1009">
      <path d=" M 2.7332708581258025 -6.453880598889349 h 3.1441346533773 v 6.203880598889349 h -3.1441346533773 Z"/>
    </clipPath>
    <clipPath id="SvgjsClipPath1008">
      <path d=" M 2.7332708581258025 -6.453880598889349 L 5.8774055115031025 -6.453880598889349 L 5.8774055115031025 -0.25 L 2.7332708581258025 -0.25 Z"/>
    </clipPath>
  </defs>
</svg>